<?xml version="1.0" encoding="UTF-8"?>
<!DOCTYPE svg PUBLIC "-//W3C//DTD SVG 1.1//EN" "http://www.w3.org/Graphics/SVG/1.1/DTD/svg11.dtd">
<!-- Creator: CorelDRAW 2021 (64-Bit) -->
<svg xmlns="http://www.w3.org/2000/svg" xml:space="preserve" width="0.801512in" height="0.801512in" version="1.1" style="shape-rendering:geometricPrecision; text-rendering:geometricPrecision; image-rendering:optimizeQuality; fill-rule:evenodd; clip-rule:evenodd"
viewBox="0 0 23.86 23.86"
 xmlns:xlink="http://www.w3.org/1999/xlink"
 xmlns:xodm="http://www.corel.com/coreldraw/odm/2003">
 <defs>
  <style type="text/css">
   <![CDATA[
    .fil0 {fill:black}
    .fil2 {fill:#CC3300}
    .fil1 {fill:#FDF3E6;fill-rule:nonzero}
   ]]>
  </style>
 </defs>
 <g id="Layer_x0020_1">
  <metadata id="CorelCorpID_0Corel-Layer"/>
  <g id="_2504064498976">
   <rect class="fil0" width="23.86" height="23.86"/>
   <g>
    <path class="fil1" d="M6.12 15.12l0.39 -1.19 2.42 0 0.39 1.19 1.88 0 -2.26 -6.38 -2.39 0 -2.26 6.38 1.83 0zm1.17 -3.55l0.43 -1.6 0.43 1.6 0.3 0.93 -1.47 0 0.3 -0.93z"/>
    <path id="_1" class="fil1" d="M14.34 15.12c1.34,0 2.27,-0.37 2.27,-1.63 0,-0.96 -0.64,-1.61 -2.46,-1.61 0.94,0 2.27,-0.16 2.27,-1.52 0,-0.86 -0.5,-1.62 -2.05,-1.62l-3.41 0 0 6.38 3.38 0zm-0.38 -4.86c0.41,0 0.65,0.14 0.65,0.49 0,0.33 -0.24,0.47 -0.65,0.47l-1.29 0 0 -0.95 1.29 0zm0.14 2.29c0.53,0 0.75,0.17 0.75,0.52 0,0.34 -0.22,0.52 -0.75,0.52l-1.43 0 0 -1.05 1.43 0z"/>
    <circle class="fil2" cx="18.22" cy="13.78" r="1.34"/>
   </g>
  </g>
 </g>
</svg>
